# xmcd
#
# Track frame offsets:
# 150
# 11897
# 23022
# 33952
# 46082
# 57782
# 68917
# 79217
# 90085
# 100570
# 110117
# 120322
#
# Disc length: 1760 seconds
#
#
# Revision: 0
# Processed by: cddbd v1.4PL0 Copyright (c) Steve Scherf et al.
# Submitted via: FreeRIP 2.51 
#
DISCID=8506de0c
DTITLE=Fats Domino - The Fat Man
DYEAR=1900
DGENRE=Blues
TTITLE0=The Fat Man
TTITLE1=Detroit City Blues
TTITLE2=Hide away blues
TTITLE3=She's my baby
TTITLE4=Brand New Baby (New Baby)
TTITLE5=Little Bee
TTITLE6=Boogie Woogie Baby
TTITLE7=Hey! La Bas Boogie (Hey La Bas)
TTITLE8=Korea Blues
TTITLE9=Every Night About This Time
TTITLE10=Careless Love
TTITLE11=Hey! Fat Man
EXTD=
EXTT0=
EXTT1=
EXTT2=
EXTT3=
EXTT4=
EXTT5=
EXTT6=
EXTT7=
EXTT8=
EXTT9=
EXTT10=
EXTT11=
PLAYORDER=
